<svg fill="none" xmlns="http://www.w3.org/2000/svg" width="100" height="100" viewBox="0 0 32 32">
<path fill-rule="evenodd" clip-rule="evenodd" d="M15.95 23.31C15.95 23.31 6.65001 13.42 11.37 10.19C11.6987 9.92418 12.077 9.72653 12.4829 9.60863C12.8889 9.49072 13.3142 9.45493 13.7342 9.50335C14.1541 9.55177 14.5601 9.68342 14.9286 9.89061C15.297 10.0978 15.6205 10.3764 15.88 10.71C16.1394 10.3793 16.4618 10.1032 16.8285 9.89782C17.1952 9.69243 17.599 9.56178 18.0165 9.51342C18.4341 9.46506 18.8571 9.49996 19.261 9.6161C19.665 9.73223 20.0419 9.9273 20.37 10.19C25.11 13.42 15.9 23.31 15.9 23.31H15.95ZM15.87 12.54C15.5732 12.172 15.238 11.8368 14.87 11.54C14.4982 11.2144 14.0251 11.0275 13.5311 11.0111C13.0371 10.9946 12.5526 11.1498 12.16 11.45C11.9675 11.5702 11.8063 11.7344 11.6898 11.9291C11.5733 12.1239 11.5048 12.3436 11.49 12.57C11.4848 12.6666 11.4848 12.7634 11.49 12.86C11.49 15.04 13.86 18.59 15.91 21.04C17.91 18.6 20.26 15.04 20.26 12.89C20.2655 12.7901 20.2655 12.6899 20.26 12.59C20.2456 12.3596 20.1764 12.1359 20.0581 11.9376C19.9398 11.7394 19.7759 11.5722 19.58 11.45C19.2279 11.1115 18.7585 10.9224 18.27 10.9224C17.7816 10.9224 17.3121 11.1115 16.96 11.45C16.5458 11.7616 16.1729 12.1245 15.85 12.53" fill="white"/>
<path fill-rule="evenodd" clip-rule="evenodd" d="M1 1H31V31H1V1Z" stroke="white" stroke-width="1.25" stroke-miterlimit="10"/>
















</svg>